name ./resultDataOpenSim/trcMotMarkerGrf/sub09/grf-01-06.mot
datacolumns 19
datarows 17
range 0.48000000 0.54400000
endheader

                time	     ground_force_vx	     ground_force_vy	     ground_force_vz	     ground_force_px	     ground_force_py	     ground_force_pz	   l_ground_force_vx	   l_ground_force_vy	   l_ground_force_vz	   l_ground_force_px	   l_ground_force_py	   l_ground_force_pz	     ground_torque_x	     ground_torque_y	     ground_torque_z	   l_ground_torque_x	   l_ground_torque_y	   l_ground_torque_z	
          0.48000000	         48.44143571	        458.87843688	        -16.80276370	         -0.68682703	          0.00000000	          0.08296068	          0.00000000	          0.00000000	          0.00000000	          0.00000000	          0.00000000	          0.00000000	          0.00000000	          5.39874803	          0.00000000	          0.00000000	          0.00000000	          0.00000000	
          0.48400000	         50.51314506	        470.04189607	        -17.67022684	         -0.68434921	          0.00000000	          0.08372829	          0.00000000	          0.00000000	          0.00000000	          0.00000000	          0.00000000	          0.00000000	          0.00000000	          5.75393510	          0.00000000	          0.00000000	          0.00000000	          0.00000000	
          0.48800000	         52.24946802	        481.55034396	        -18.39604010	         -0.68170297	          0.00000000	          0.08449656	          0.00000000	          0.00000000	          0.00000000	          0.00000000	          0.00000000	          0.00000000	          0.00000000	          6.14091131	          0.00000000	          0.00000000	          0.00000000	          0.00000000	
          0.49200000	         53.81266362	        493.33400356	        -19.18452963	         -0.67891411	          0.00000000	          0.08526555	          0.00000000	          0.00000000	          0.00000000	          0.00000000	          0.00000000	          0.00000000	          0.00000000	          6.51546997	          0.00000000	          0.00000000	          0.00000000	          0.00000000	
          0.49600000	         55.41808754	        505.35243916	        -20.23166183	         -0.67601690	          0.00000000	          0.08603659	          0.00000000	          0.00000000	          0.00000000	          0.00000000	          0.00000000	          0.00000000	          0.00000000	          6.83149354	          0.00000000	          0.00000000	          0.00000000	          0.00000000	
          0.50000000	         57.27377155	        517.62601359	        -21.67944280	         -0.67304055	          0.00000000	          0.08680389	          0.00000000	          0.00000000	          0.00000000	          0.00000000	          0.00000000	          0.00000000	          0.00000000	          7.05025498	          0.00000000	          0.00000000	          0.00000000	          0.00000000	
          0.50400000	         59.52287235	        530.23179011	        -23.58170368	         -0.67002457	          0.00000000	          0.08755213	          0.00000000	          0.00000000	          0.00000000	          0.00000000	          0.00000000	          0.00000000	          0.00000000	          7.14826218	          0.00000000	          0.00000000	          0.00000000	          0.00000000	
          0.50800000	         62.20967093	        543.28517039	        -25.88823744	         -0.66701569	          0.00000000	          0.08826637	          0.00000000	          0.00000000	          0.00000000	          0.00000000	          0.00000000	          0.00000000	          0.00000000	          7.12175177	          0.00000000	          0.00000000	          0.00000000	          0.00000000	
          0.51200000	         65.27411286	        556.92335748	        -28.45417417	         -0.66406788	          0.00000000	          0.08891866	          0.00000000	          0.00000000	          0.00000000	          0.00000000	          0.00000000	          0.00000000	          0.00000000	          6.98667882	          0.00000000	          0.00000000	          0.00000000	          0.00000000	
          0.51600000	         68.57341071	        571.27701958	        -31.07012391	         -0.66123175	          0.00000000	          0.08947447	          0.00000000	          0.00000000	          0.00000000	          0.00000000	          0.00000000	          0.00000000	          0.00000000	          6.77431840	          0.00000000	          0.00000000	          0.00000000	          0.00000000	
          0.52000000	         71.92511808	        586.42896543	        -33.50271271	         -0.65852580	          0.00000000	          0.08990361	          0.00000000	          0.00000000	          0.00000000	          0.00000000	          0.00000000	          0.00000000	          0.00000000	          6.52377450	          0.00000000	          0.00000000	          0.00000000	          0.00000000	
          0.52400000	         75.15641454	        602.38011371	        -35.53638346	         -0.65595074	          0.00000000	          0.09018510	          0.00000000	          0.00000000	          0.00000000	          0.00000000	          0.00000000	          0.00000000	          0.00000000	          6.27336153	          0.00000000	          0.00000000	          0.00000000	          0.00000000	
          0.52800000	         78.14761636	        619.03665229	        -37.00677884	         -0.65350580	          0.00000000	          0.09030691	          0.00000000	          0.00000000	          0.00000000	          0.00000000	          0.00000000	          0.00000000	          0.00000000	          6.05294538	          0.00000000	          0.00000000	          0.00000000	          0.00000000	
          0.53200000	         80.86220206	        636.22053821	        -37.81823395	         -0.65119262	          0.00000000	          0.09026669	          0.00000000	          0.00000000	          0.00000000	          0.00000000	          0.00000000	          0.00000000	          0.00000000	          5.87892822	          0.00000000	          0.00000000	          0.00000000	          0.00000000	
          0.53600000	         83.35318147	        653.69687572	        -37.94575544	         -0.64901405	          0.00000000	          0.09007296	          0.00000000	          0.00000000	          0.00000000	          0.00000000	          0.00000000	          0.00000000	          0.00000000	          5.75276387	          0.00000000	          0.00000000	          0.00000000	          0.00000000	
          0.54000000	         85.74219913	        671.20234446	        -37.43328823	         -0.64696102	          0.00000000	          0.08974394	          0.00000000	          0.00000000	          0.00000000	          0.00000000	          0.00000000	          0.00000000	          0.00000000	          5.66295612	          0.00000000	          0.00000000	          0.00000000	          0.00000000	
          0.54400000	         88.18536536	        688.45897631	        -36.39697374	         -0.64502306	          0.00000000	          0.08930728	          0.00000000	          0.00000000	          0.00000000	          0.00000000	          0.00000000	          0.00000000	          0.00000000	          5.58970283	          0.00000000	          0.00000000	          0.00000000	          0.00000000	
